<svg height="84" viewBox="0 0 850 84" width="850" xmlns="http://www.w3.org/2000/svg"><g fill="#fff" fill-rule="evenodd" transform="translate(0 -1)"><g transform="translate(198.007838)"><path d="m42.1211456 1.09173968c12.9824269 0 21.7119899 5.0225879 25.9648539 8.10463048 2.3531366 1.82639564 2.4621844 4.10939014.8953398 6.62068404l-2.0145146 3.310342c-1.5668446 2.6254437-3.6904069 2.8537432-6.379296 1.1414973-3.466572-2.2829945-9.7368202-5.7074863-17.9067957-5.7074863-17.3472085 0-26.6363588 12.898919-26.6363588 27.852533 0 15.1848403 9.6249028 28.9969571 26.7482762 28.9969571 8.9562676 0 15.7803638-4.3376896 19.4765101-7.0802099 2.4593148-1.8234687 4.6976642-1.8234687 6.4883438.801975l2.2412192 3.0820426c1.6758924 2.2829945 1.5639749 4.6801387-.6715049 6.620684-4.4766989 3.6527912-13.9925539 10.0451758-28.0941555 10.0451758-24.9575967 0-41.07371286-18.3781057-41.07371286-42.2383252 0-23.5148434 16.89953856-41.55049992 40.96179536-41.55049992"/><path d="m81.6251441 30.0857699c0-3.0820426 1.5668446-4.7942885 4.5886164-4.7942885h4.3647815c3.0217718 0 4.7005339 1.7122459 4.7005339 4.7942885v5.4791868c0 2.1688447-.3357524 3.9952403-.3357524 3.9952403h.2238349c2.2412192-6.9631332 8.5057276-14.7253145 16.5666556-14.7253145 3.133689 0 4.252864 1.5980962 4.252864 4.7942885v4.4518392c0 3.0820426-1.790679 4.7942885-4.815321 4.7942885-10.405455 0-15.4446112 10.5017747-15.4446112 21.1206261v18.7234818c0 3.1932654-1.5668446 4.7913615-4.5886164 4.7913615h-4.9243689c-3.0217718 0-4.5886164-1.5980961-4.5886164-4.7913615z"/><path d="m158.515318 47.7789773c-.223835-8.1046305-5.036286-12.898919-11.5275-12.898919-7.274635 0-12.422839 5.1367376-13.765849 12.898919zm-11.191747-23.8572926c16.228033 0 25.293349 11.7574217 25.293349 27.7383832 0 2.5142209-2.126432 4.9113651-4.924369 4.9113651h-34.806334c.895339 10.5017747 8.505728 15.9809615 17.123373 15.9809615 5.260121 0 9.624903-2.054695 12.310922-3.7669409 2.797937-1.3697967 4.812452-1.0302744 6.267379 1.5980961l1.343009 2.2829945c1.34301 2.6254437.89534 4.9084382-1.566844 6.3923847-3.693277 2.3971442-10.408325 5.8216359-19.361723 5.8216359-18.914053 0-30.665388-13.9262664-30.665388-30.4779766 0-17.9244337 11.863252-30.4809035 28.986626-30.4809035z"/><path d="m178.321841 30.6565185c-.895339-3.1961923.671505-5.3650371 3.917112-5.3650371h5.372039c2.797936 0 4.476699 1.3697967 5.036286 4.2235398l9.177233 34.019545c.671505 3.0820426 1.119175 6.1640852 1.119175 6.1640852h.223834s.44767-3.0820426 1.231093-6.1640852l9.624902-34.019545c.562457-2.7395934 2.353137-4.1093901 5.151074-4.1093901h4.252864c2.797937 0 4.476699 1.3697967 5.148204 4.1093901l9.512985 34.019545c.89534 3.0820426 1.231092 6.1640852 1.231092 6.1640852h.223835s.44767-3.0820426 1.231092-6.1640852l9.065316-34.019545c.671504-2.8537431 2.350267-4.2235398 5.148203-4.2235398h5.148204c3.357524 0 4.812452 2.1688448 3.917112 5.3650371l-14.661189 48.8590093c-.783423 2.7425203-2.574102 3.9952403-5.260122 3.9952403h-7.49847c-2.797937 0-4.588617-1.3668697-5.260121-4.1093901l-8.617646-29.1111068c-.89534-3.0820426-1.34301-6.2782349-1.34301-6.2782349h-.226704s-.556718 3.1961923-1.452058 6.2782349l-8.617645 29.1111068c-.674375 2.7425204-2.353137 4.1093901-5.151074 4.1093901h-7.722305c-2.68602 0-4.364782-1.25272-5.148204-3.9952403z"/><path d="m275.801961 30.0857699c0-3.0820426 1.566844-4.7942885 4.588616-4.7942885h4.364782c3.021772 0 4.588616 1.7122459 4.588616 4.7942885v3.5386414c0 1.255647-.223835 2.6254437-.223835 2.6254437h.223835c2.797937-5.7074862 9.73682-12.3281703 18.690218-12.3281703 8.617646 0 14.325437 4.1093901 16.678574 11.9857211h.220965c3.021772-6.0499354 10.523112-11.9857211 19.47651-11.9857211 11.863252 0 18.690218 6.8489835 18.690218 22.1450467v32.6526752c0 3.1932654-1.678762 4.7913615-4.700534 4.7913615h-4.812451c-3.13369 0-4.703404-1.5980961-4.703404-4.7913615v-29.9130818c0-6.6206841-1.228222-11.643272-7.834223-11.643272-9.624903 0-14.546402 10.0451758-14.546402 20.2074283v21.3489255c0 3.1932654-1.569714 4.7913615-4.591486 4.7913615h-4.924369c-3.021772 0-4.700534-1.5980961-4.700534-4.7913615v-29.9130818c0-6.2782349-.89534-11.643272-7.610388-11.643272-10.072573 0-14.773106 10.5017747-14.773106 20.2074283v21.3489255c0 3.1932654-1.566845 4.7913615-4.588617 4.7913615h-4.924369c-3.021772 0-4.588616-1.5980961-4.588616-4.7913615z"/><path d="m413.012784 47.7789773c-.226705-8.1046305-5.036287-12.898919-11.5275-12.898919-7.274636 0-12.42284 5.1367376-13.768719 12.898919zm-11.191748-23.8572926c16.225164 0 25.293349 11.7574217 25.293349 27.7383832 0 2.5142209-2.126432 4.9113651-4.924369 4.9113651h-34.806334c.89247 10.5017747 8.505728 15.9809615 17.123374 15.9809615 5.260121 0 9.624902-2.054695 12.310922-3.7669409 2.797936-1.3697967 4.812451-1.0302744 6.267378 1.5980961l1.34301 2.2829945c1.34301 2.6254437.89534 4.9084382-1.566845 6.3923847-3.693276 2.3971442-10.408325 5.8216359-19.361723 5.8216359-18.916922 0-30.665387-13.9262664-30.665387-30.4779766 0-17.9244337 11.860382-30.4809035 28.986625-30.4809035z"/><path d="m437.407923 30.0857699c0-3.0820426 1.563975-4.7942885 4.588617-4.7942885h4.924368c3.021772 0 4.588617 1.7122459 4.588617 4.7942885v48.6336367c0 3.1932654-1.566845 4.7913615-4.588617 4.7913615h-4.924368c-3.024642 0-4.588617-1.5980961-4.588617-4.7913615zm0-19.4054533v-3.42449176c0-3.08204258 1.563975-4.79428846 4.588617-4.79428846h4.924368c3.021772 0 4.700534 1.71224588 4.700534 4.79428846v3.42449176c0 3.0820426-1.678762 4.6801387-4.700534 4.6801387h-4.924368c-3.024642 0-4.588617-1.5980961-4.588617-4.6801387z"/><path d="m463.148942 72.4382448 1.34301-2.0546951c1.678762-2.3971442 3.581359-2.6283705 6.379296-1.1414972 2.686019 1.4839464 6.938883 3.9952404 12.758592 3.9952404 4.924369 0 7.94901-2.2829945 7.94901-5.9357857 0-9.4744272-28.31799-5.9357857-28.31799-25.9149146 0-11.4149725 9.848737-17.4649079 21.823907-17.4649079 7.610388 0 12.870509 2.511294 15.895151 4.2235398 2.571232 1.3697967 2.909854 3.766941 1.678762 6.3923846l-1.122044 2.0546951c-1.34301 2.7395934-3.469442 3.0820426-6.264509 1.8263956-2.465054-1.1414973-6.158331-2.8537431-10.858865-2.8537431-4.921499 0-7.722306 2.054695-7.722306 5.7074862 0 9.5915039 28.315121 5.821636 28.315121 25.6866151 0 10.2734753-8.505728 17.9215068-21.71199 17.9215068-9.174363 0-15.556529-3.5386414-19.02597-5.9357857-2.576972-1.4839464-2.797937-3.9952403-1.119175-6.5065343"/><path d="m518.771926 37.6196517h-3.024641c-3.018902 0-4.585747-1.5980961-4.585747-4.7942884v-1.9405454c0-3.0820425 1.566845-4.7942884 4.697664-4.7942884h3.245607v-11.8715714c0-3.0820426 1.678762-4.79428849 4.703404-4.79428849h4.476699c3.021771 0 4.700534 1.71224589 4.700534 4.79428849v11.8715714h8.281893c3.021771 0 4.700534 1.7122459 4.700534 4.7942884v1.9405454c0 3.1961923-1.678763 4.7942884-4.588617 4.7942884h-8.39381v22.6045725c0 8.6753791 5.260121 10.387625 9.174363 10.8442239 3.472311.3424492 4.703403 1.4839464 4.703403 4.6801387v3.5386415c0 3.4244918-1.902597 4.7972154-5.819708 4.7972154-10.18449 0-22.271578-5.5962635-22.271578-21.3489255z"/><path d="m592.637459 47.7789773c-.223835-8.1046305-5.036286-12.898919-11.5275-12.898919-7.274636 0-12.422839 5.1367376-13.765849 12.898919zm-11.191747-23.8572926c16.228033 0 25.293349 11.7574217 25.293349 27.7383832 0 2.5142209-2.126432 4.9113651-4.921499 4.9113651h-34.809204c.895339 10.5017747 8.505728 15.9809615 17.123373 15.9809615 5.260121 0 9.624903-2.054695 12.313792-3.7669409 2.795067-1.3697967 4.809582-1.0302744 6.264509 1.5980961l1.343009 2.2829945c1.34588 2.6254437.89534 4.9084382-1.566844 6.3923847-3.693277 2.3971442-10.408325 5.8216359-19.361723 5.8216359-18.914053 0-30.668258-13.9262664-30.668258-30.4779766 0-17.9244337 11.866122-30.4809035 28.989496-30.4809035z"/><path d="m617.032599 30.0857699c0-3.0820426 1.566844-4.7942885 4.588616-4.7942885h4.364782c3.021771 0 4.700533 1.7122459 4.700533 4.7942885v5.4791868c0 2.1688447-.335752 3.9952403-.335752 3.9952403h.223835c2.238349-6.9631332 8.505728-14.7253145 16.566656-14.7253145 3.130819 0 4.252864 1.5980962 4.252864 4.7942885v4.4518392c0 3.0820426-1.79068 4.7942885-4.815321 4.7942885-10.408325 0-15.444612 10.5017747-15.444612 21.1206261v18.7234818c0 3.1932654-1.566844 4.7913615-4.588616 4.7913615h-4.924369c-3.021772 0-4.588616-1.5980961-4.588616-4.7913615z"/></g><path d="m.17218073 26.2461535c.48490548 2.0278772 1.99390569 3.0727644 4.52548348 3.0727644h62.56186779c3.0160324 0 4.6947945-1.5980962 4.6947945-4.6772119v-5.0196609c0-3.0791157-1.6787621-4.6772119-4.6947945-4.6772119h-62.56186779c-2.53157779 0-4.040578 1.0448872-4.52548348 3.0727644z"/><path d="m157.949991 68.9581416c3.016033 0 4.694795 1.5980962 4.694795 4.6772119v5.0196609c0 3.0791157-1.678762 4.6772119-4.694795 4.6772119h-70.0201625c-3.1308196 0-4.6947946-1.5980962-4.6947946-4.6772119v-5.0196609c0-3.0791157 1.563975-4.6772119 4.6947946-4.6772119z"/><path d="m124.429273 41.9251452c3.018902 0 4.697664 1.5980961 4.697664 4.6772118v5.019661c0 3.0791157-1.678762 4.6742849-4.697664 4.6742849h-36.4621387c-3.1308196 0-4.6976642-1.5951692-4.6976642-4.6742849v-5.019661c0-3.0791157 1.5668446-4.6772118 4.6976642-4.6772118z"/><path d="m67.339883 42.0246603c3.0189021 0 4.6976642 1.5951693 4.6976642 4.6742849v5.019661c0 3.0791157-1.6787621 4.6742849-4.6976642 4.6742849h-14.0929927c-3.1308195 0-4.6976642-1.5951692-4.6976642-4.6742849v-5.019661c0-3.0791156 1.5668447-4.6742849 4.6976642-4.6742849z"/></g></svg>